{"title":"Santa.Sangre.1989.1080p.BluRay.x264-HD","uid":6588888,"size":10360317182,"categoryP":"video","categoryS":"hd___movies","magnet":"?xt=urn:btih:ee9712ba4a4e0c4f70add3c540149f66fed1754d&amp;dn=Santa.Sangre.1989.1080p.BluRay.x264-HD&amp;tr=udp%3A%2F%2Ftracker.openbittorrent.com%3A80&amp;tr=udp%3A%2F%2Fopen.demonii.com%3A1337&amp;tr=udp%3A%2F%2Ftracker.coppersurfer.tk%3A6969&amp;tr=udp%3A%2F%2Fexodus.desync.com%3A6969","seeders":2,"leechers":1,"uploader":"insinuendo","files":2,"time":1312737417,"description":"A young man is confined in a mental hospital. Through a flashback we see that he was traumatized as a child, when he and his family were circus performers: he saw his father cut off the arms of his mother, a religious fanatic and leader of the heretical church of Santa Sangre (&quot;Holy Blood&quot;), and then commit suicide. Back in the present, he escapes and rejoins his surviving and armless mother. Against his will, he &quot;becomes her arms&quot; and the two undertake a grisly campaign of murder and revenge.\n\nDirector: Alejandro Jodorowsky\nWriters: Alejandro Jodorowsky (story), Roberto Leoni (adaptation)\nStars: Axel Jodorowsky, Blanca Guerra and Guy Stockwell\n &lt;a href=&quot;\nhttp://www.imdb.com/title/tt0098253/&quot; rel=&quot;nofollow&quot; target=&quot;_NEW&quot;&gt;\nhttp://www.imdb.com/title/tt0098253/&lt;/a&gt;\n\nFormat : Matroska\nFile size : 9.65 GiB\nDuration : 2h 3mn\nOverall bit rate : 11.2 Mbps\n\nVideo\nID : 1\nFormat : AVC\nFormat profile : &lt;a class=&quot;__cf_email__&quot; href=&quot;/cdn-cgi/l/email-protection&quot; data-cfemail=&quot;ade5c4cac5ede199839d&quot;&gt;[email&amp;#160;protected]&lt;/a&gt;&lt;script cf-hash='f9e31' type=&quot;text/javascript&quot;&gt;\n/* &lt;![CDATA[ */!function(){try{var t=&quot;currentScript&quot;in document?document.currentScript:function(){for(var t=document.getElementsByTagName(&quot;script&quot;),e=t.length;e--;)if(t[e].getAttribute(&quot;cf-hash&quot;))return t[e]}();if(t&amp;&amp;t.previousSibling){var e,r,n,i,c=t.previousSibling,a=c.getAttribute(&quot;data-cfemail&quot;);if(a){for(e=&quot;&quot;,r=parseInt(a.substr(0,2),16),n=2;a.length-n;n+=2)i=parseInt(a.substr(n,2),16)^r,e+=String.fromCharCode(i);e=document.createTextNode(e),c.parentNode.replaceChild(e,c)}}}catch(u){}}();/* ]]&gt; */&lt;/script&gt;\nFormat settings, CABAC : Yes\nFormat settings, ReFrames : 4 frames\nCodec ID : V_MPEG4/ISO/AVC\nDuration : 2h 3mn\nBit rate : 9 497 Kbps\nWidth : 1 920 pixels\nHeight : 1 032 pixels\nDisplay aspect ratio : 1.851\nFrame rate : 24.000 fps\nColor space : YUV\nChroma subsampling : 4:2:0\nBit depth : 8 bits\nScan type : Progressive\nBits/(Pixel*Frame) : 0.200\nStream size : 8.16 GiB (85%)\n\nAudio\nID : 2\nFormat : DTS\nDuration : 2h 3mn\nBit rate mode : Constant\nBit rate : 1 510 Kbps\nChannel(s) : 2 channels\nChannel positions : Front: L R\nSampling rate : 48.0 KHz\nBit depth : 24 bits\nCompression mode : Lossy\nStream size : 1.30 GiB (13%)\nLanguage : English\n\nText\nID : 3\nFormat : PGS\nLanguage : English","torrent":{"xt":"urn:btih:ee9712ba4a4e0c4f70add3c540149f66fed1754d","amp;dn":"Santa.Sangre.1989.1080p.BluRay.x264-HD","amp;tr":["udp%3A%2F%2Ftracker.openbittorrent.com%3A80","udp%3A%2F%2Fopen.demonii.com%3A1337","udp%3A%2F%2Ftracker.coppersurfer.tk%3A6969","udp%3A%2F%2Fexodus.desync.com%3A6969"],"infoHash":"ee9712ba4a4e0c4f70add3c540149f66fed1754d","infoHashBuffer":{"type":"Buffer","data":[238,151,18,186,74,78,12,79,112,173,211,197,64,20,159,102,254,209,117,77]},"announce":[],"urlList":[]}}